<svg width="69" height="61" viewBox="0 0 69 61" fill="none" xmlns="http://www.w3.org/2000/svg">
<path opacity="0.8" d="M59.0953 14.3069L63.3679 19.3657L67.1064 23.7922L57.1379 28.8259L49.3825 31.9903L44.1896 30.011L39.4273 29.0224L34.1516 24.5399L27.4089 16.5565L35.4083 12.2379L46.2555 9.8479L54.7596 11.7391L59.0953 14.3069Z" fill="#042F2E" stroke="#042F2E" stroke-width="0.103464"/>
<path opacity="0.8" d="M32.6283 16.0127L37.8255 13.5177L42.373 11.3345L44.4364 20.8358L45.4081 28.0633L42.605 32.0069L40.731 35.8044L35.8002 39.2707L27.5984 43.2082L25.7073 35.5228L26.064 25.8589L29.5166 19.1054L32.6283 16.0127Z" fill="#042F2E" stroke="#042F2E" stroke-width="0.0900795"/>
<path opacity="0.8" d="M18.507 48.6326L14.0027 51.2044L10.0615 53.4547L7.60168 45.0603L6.26699 38.6365L8.53001 34.9181L9.96869 31.3903L14.1717 27.964L21.2799 23.9054L23.4689 30.6813L23.7674 39.3764L21.1014 45.6581L18.507 48.6326Z" fill="#042F2E" stroke="#042F2E" stroke-width="0.0810426"/>
<path opacity="0.8" d="M53.6413 40.3683L55.9654 46.5687L57.999 51.9941L46.9186 53.385L38.5508 53.7591L34.3251 50.1499L30.172 47.6183L26.7095 41.6236L23.0418 31.8385L32.0273 30.4594L43.0468 31.8537L50.4208 36.4927L53.6413 40.3683Z" fill="#042F2E" stroke="#042F2E" stroke-width="0.103464"/>
<path opacity="0.8" d="M54.7445 30.8693L61.025 32.9674L66.5205 34.8032L60.6251 44.2876L55.6475 51.0243L50.1829 52.035L45.6013 53.668L38.7639 52.5838L28.8525 49.2728L33.4381 41.4234L41.4591 33.7399L49.7059 30.9315L54.7445 30.8693Z" fill="#042F2E" stroke="#042F2E" stroke-width="0.103464"/>
<path opacity="0.8" d="M21.2588 36.5077L20.201 41.4818L19.2754 45.8342L11.528 42.1557L5.95669 38.9399L4.7128 34.8573L3.07046 31.5024L3.30642 26.191L4.9758 18.3412L11.3622 21.1616L17.9193 26.6179L20.7756 32.6681L21.2588 36.5077Z" fill="#042F2E" stroke="#042F2E" stroke-width="0.06586"/>
<path opacity="0.8" d="M15.2772 32.9283L10.4528 34.5364L6.23145 35.9435L5.47763 27.4004L5.42737 20.9678L8.31698 17.827L10.3774 14.7112L15.0761 12.2236L22.6896 9.68582L23.4937 16.6209L22.1117 25.0384L18.3427 30.5664L15.2772 32.9283Z" fill="#042F2E" stroke="#042F2E" stroke-width="0.06586"/>
</svg>
